<svg width="270" height="270" viewBox="0 0 270 270" fill="none" xmlns="http://www.w3.org/2000/svg">
<rect width="270" height="270" fill="white"/>
<path d="M221.144 94.8198L221.186 94.837L221.209 94.8616L221.161 94.9434C221.159 94.9244 221.156 94.9054 221.154 94.8864L221.149 94.8526L221.144 94.8198Z" fill="#0A1928"/>
<path d="M221.144 94.8198C211.407 90.8143 201.509 87.3909 191.023 86.156C178.211 84.6492 165.503 84.813 153.355 89.9396C145.874 93.0926 139.44 97.5886 137.658 106.474C136.795 110.807 137.138 115.188 138.209 119.447C138.737 121.543 138.361 122.55 136.283 123.304C115.751 130.765 101.165 145.825 88.1853 162.95C87.0144 164.494 87.1414 166.033 87.2766 167.67L87.2766 167.671C87.2955 167.9 87.3145 168.13 87.3302 168.363C88.0495 179.632 84.9005 189.557 76.6445 199C78.131 172.851 66.3344 154.203 48 138.708C57.359 137.251 66.7819 141.157 80.209 151.885C82.5748 144.621 85.6358 137.808 89.2723 131.231C91.2065 127.726 89.1844 122.485 85.2841 119.872C83.9255 118.959 82.4306 118.256 80.8645 117.519C80.1551 117.185 79.431 116.844 78.6985 116.474C84.5169 112.92 90.623 110.733 97.2806 111.216C100.709 111.462 101.469 110.053 101.301 107.08C100.845 98.989 100.198 91.5939 86.1314 84.2151C93.0047 80.4889 100.046 78.4824 107.415 77.7617C115.599 76.9592 123.655 77.819 131.248 81.2177C133.202 82.09 134.583 81.489 136.131 80.8155L136.132 80.8149L136.133 80.8147C136.357 80.7171 136.585 80.618 136.819 80.5216C164.936 68.8924 191.758 69.9406 216.574 89.3663C216.859 89.5902 217.157 89.8099 217.457 90.032C219.075 91.227 220.784 92.4893 221.144 94.8198Z" fill="#0A1928"/>
<path d="M221.967 121.056L221.968 121.019L221.976 121.011L222 121.036L221.967 121.056Z" fill="#0A1928"/>
<path d="M221.967 121.056C221.83 126.658 219.437 131.529 217.013 136.309C210.227 149.674 199.757 159.322 187.09 166.594C184.804 167.904 183.117 169.395 181.847 171.835C178.226 178.78 172.655 183.694 165.518 187.117C165.608 185.567 165.878 184.07 166.147 182.581C166.571 180.232 166.992 177.904 166.693 175.422C166.199 175.536 165.707 175.646 165.22 175.754C160.313 176.845 155.805 177.847 152.315 182.711C147.136 189.926 139.2 193.407 130.152 195.659L130.387 195.098L130.387 195.097C132.161 190.85 133.731 187.091 134.788 183.145C135.539 180.336 135.123 179.165 131.767 179.018C120.514 178.534 109.764 175.619 99.5657 170.672C98.9341 170.368 98.335 169.989 97.7099 169.593L97.7091 169.593L97.7081 169.592L97.7072 169.592L97.7055 169.591C97.4066 169.401 97.1017 169.209 96.7843 169.018C105.056 156.406 115.414 146.464 128.186 139.118C130.576 137.742 131.479 138.406 132.734 140.592C137.649 149.15 144.419 155.702 153.442 159.617C153.569 159.672 153.696 159.733 153.824 159.795C154.533 160.138 155.301 160.51 156.607 160.059C148.127 153.016 142.82 144.384 142.061 133.14C143.299 133.066 143.781 133.841 144.233 134.569C144.385 134.813 144.533 135.053 144.706 135.253C150.045 141.428 155.936 146.882 163.304 150.395C174.59 155.784 185.491 154.588 196.009 148.143C205.088 142.582 211.946 134.671 218.124 126.031C218.483 125.528 218.802 124.988 219.12 124.448C219.879 123.162 220.639 121.872 221.967 121.056Z" fill="#0A1928"/>
<path d="M155.463 119.464C155.463 112.067 160.023 105.704 165.308 105.704C170.577 105.704 175.153 112.102 175.161 119.472C175.161 126.868 170.601 133.215 165.3 133.207C159.959 133.19 155.455 126.894 155.463 119.464Z" fill="#0A1928"/>
<!-- Large plus icon aligned with tuna -->
<path d="M195 95 h30 v-30 h16 v30 h30 v16 h-30 v30 h-16 v-30 h-30 z" fill="#0A1928"/>
</svg>
